<svg width="43" height="39" viewBox="0 0 43 39" fill="none" xmlns="http://www.w3.org/2000/svg">
<path d="M11.8428 18.2344C11.8545 18.4102 11.8193 18.5801 11.7373 18.7441C11.667 18.9082 11.6025 19.0547 11.5439 19.1836L10.9814 19.7812L10.6475 20.7832C10.5186 20.877 10.3779 20.9707 10.2256 21.0645C10.085 21.1465 9.95605 21.2344 9.83887 21.3281C9.70996 21.4336 9.59277 21.5508 9.4873 21.6797C9.39355 21.8086 9.28809 21.9199 9.1709 22.0137C9.05371 22.1074 8.91309 22.1895 8.74902 22.2598C8.59668 22.3184 8.45605 22.3887 8.32715 22.4707C8.09277 22.6113 7.87012 22.7578 7.65918 22.9102C7.45996 23.0625 7.24902 23.209 7.02637 23.3496C6.96777 23.373 6.9209 23.4023 6.88574 23.4375C6.8623 23.4609 6.82129 23.4844 6.7627 23.5078C6.72754 23.5312 6.5752 23.5781 6.30566 23.6484C6.03613 23.7188 5.7373 23.8008 5.40918 23.8945C5.09277 23.9766 4.79395 24.0527 4.5127 24.123C4.23145 24.1934 4.07324 24.2285 4.03809 24.2285C3.82715 24.252 3.61035 24.2637 3.3877 24.2637C3.16504 24.2637 2.94238 24.2695 2.71973 24.2812L2.45605 24.4395C2.32715 24.3457 2.18652 24.2578 2.03418 24.1758C1.88184 24.0938 1.75293 24.0059 1.64746 23.9121C1.53027 23.8066 1.41309 23.6895 1.2959 23.5605C1.17871 23.4199 1.07324 23.291 0.979492 23.1738C0.920898 23.0098 0.862305 22.8516 0.803711 22.6992C0.745117 22.5352 0.698242 22.377 0.663086 22.2246L0.575195 21.5566C0.551758 21.334 0.52832 21.1172 0.504883 20.9062C0.493164 20.6953 0.475586 20.4785 0.452148 20.2559C0.651367 19.7051 0.827148 19.1543 0.979492 18.6035C1.14355 18.041 1.34277 17.4902 1.57715 16.9512C1.63574 16.8223 1.68848 16.6934 1.73535 16.5645C1.79395 16.4238 1.85254 16.2891 1.91113 16.1602C1.98145 16.0195 2.05762 15.8906 2.13965 15.7734C2.22168 15.6445 2.29199 15.5156 2.35059 15.3867C2.40918 15.2461 2.45605 15.1055 2.49121 14.9648C2.52637 14.8125 2.57324 14.6719 2.63184 14.543C2.66699 14.4727 2.72559 14.373 2.80762 14.2441C2.88965 14.1035 2.97754 13.9629 3.07129 13.8223C3.16504 13.6699 3.25293 13.5234 3.33496 13.3828C3.42871 13.2422 3.50488 13.1309 3.56348 13.0488C3.65723 12.9316 3.75098 12.8203 3.84473 12.7148C3.93848 12.6094 4.01465 12.4922 4.07324 12.3633C4.19043 12.1641 4.30176 11.9121 4.40723 11.6074C4.5127 11.3027 4.62988 11.0332 4.75879 10.7988C4.89941 10.541 5.06348 10.3008 5.25098 10.0781C5.4502 9.84375 5.63184 9.60352 5.7959 9.35742C5.97168 9.11133 6.1416 8.8418 6.30566 8.54883L7.0791 7.98633L7.43066 8.33789L8.27441 8.19727L8.80176 8.98828C8.77832 9.16406 8.74902 9.36328 8.71387 9.58594C8.69043 9.80859 8.66699 10.0371 8.64355 10.2715C8.63184 10.4941 8.62012 10.7168 8.6084 10.9395C8.6084 11.1504 8.62012 11.3379 8.64355 11.502C8.58496 11.7129 8.49707 11.9355 8.37988 12.1699C8.27441 12.3926 8.15137 12.5859 8.01074 12.75L7.94043 13.6992L7.2373 14.332L7.14941 15.2285L6.55176 15.9316C6.5166 16.0957 6.48145 16.2656 6.44629 16.4414C6.41113 16.6055 6.36426 16.7637 6.30566 16.916C6.24707 17.0566 6.17676 17.2031 6.09473 17.3555C6.0127 17.4961 5.93066 17.6426 5.84863 17.7949C5.61426 17.9941 5.37402 18.2168 5.12793 18.4629C4.88184 18.709 4.65918 18.9551 4.45996 19.2012C4.35449 19.3301 4.25488 19.4707 4.16113 19.623C4.0791 19.7637 3.99121 19.8984 3.89746 20.0273C3.59277 20.4141 3.26465 20.7773 2.91309 21.1172C2.56152 21.457 2.21582 21.8086 1.87598 22.1719L2.2627 22.8574C2.50879 22.9395 2.76074 23.0156 3.01855 23.0859C3.27637 23.1562 3.53418 23.2207 3.79199 23.2793C3.90918 23.2559 4.04395 23.2324 4.19629 23.209C4.34863 23.1738 4.50684 23.1387 4.6709 23.1035C4.83496 23.0566 4.99316 23.0098 5.14551 22.9629C5.30957 22.916 5.44434 22.8691 5.5498 22.8223C5.78418 22.7285 6.05371 22.5938 6.3584 22.418C6.66309 22.2305 6.9209 22.0664 7.13184 21.9258C7.50684 21.6914 7.8877 21.4512 8.27441 21.2051C8.66113 20.959 9.03027 20.7012 9.38184 20.4316C9.61621 20.2559 9.8623 20.0332 10.1201 19.7637C10.3779 19.4941 10.6182 19.2422 10.8408 19.0078C11.0752 18.7617 11.2803 18.5625 11.4561 18.4102C11.6436 18.2578 11.7725 18.1992 11.8428 18.2344ZM7.06152 9.91992C6.81543 10.3301 6.55176 10.7285 6.27051 11.1152C6.00098 11.4902 5.74902 11.8828 5.51465 12.293C5.43262 12.4336 5.3623 12.5801 5.30371 12.7324C5.24512 12.873 5.16895 13.0137 5.0752 13.1543C4.99316 13.2832 4.90527 13.4121 4.81152 13.541C4.71777 13.6699 4.63574 13.8105 4.56543 13.9629C4.4248 14.2324 4.2959 14.5195 4.17871 14.8242C4.07324 15.1172 3.95605 15.4043 3.82715 15.6855C3.68652 15.9668 3.52246 16.2305 3.33496 16.4766C3.14746 16.7227 2.97754 16.9863 2.8252 17.2676L2.54395 17.8301C2.52051 17.8887 2.49707 17.9355 2.47363 17.9707C2.4502 17.9941 2.42676 18.0352 2.40332 18.0938C2.35645 18.2227 2.33301 18.3633 2.33301 18.5156C2.33301 18.668 2.31543 18.8086 2.28027 18.9375C2.24512 19.0781 2.19238 19.2129 2.12207 19.3418C2.05176 19.4707 1.9873 19.5996 1.92871 19.7285C1.87012 19.8574 1.82324 19.9922 1.78809 20.1328C1.75293 20.2617 1.71191 20.3906 1.66504 20.5195C1.75879 20.4258 1.8584 20.3438 1.96387 20.2734C2.08105 20.1914 2.19238 20.1035 2.29785 20.0098C2.40332 19.9043 2.50293 19.793 2.59668 19.6758C2.69043 19.5586 2.7959 19.4531 2.91309 19.3594C3.01855 19.2656 3.12988 19.1836 3.24707 19.1133C3.37598 19.0312 3.49902 18.9492 3.61621 18.8672C3.80371 18.6094 3.96777 18.3457 4.1084 18.0762C4.17871 17.9473 4.2373 17.8008 4.28418 17.6367C4.34277 17.4727 4.41309 17.3262 4.49512 17.1973C4.56543 17.0684 4.65332 16.9453 4.75879 16.8281C4.87598 16.7109 4.97559 16.5879 5.05762 16.459C5.15137 16.3301 5.22754 16.1953 5.28613 16.0547C5.35645 15.9141 5.43262 15.7793 5.51465 15.6504C5.67871 15.3926 5.86035 15.1465 6.05957 14.9121L6.14746 13.8047L6.78027 13.0664L6.86816 12.3984L7.30762 11.7832L7.36035 10.7988L7.06152 9.91992ZM21.5283 18.4805C21.5752 18.6562 21.5576 18.8086 21.4756 18.9375C21.3936 19.0547 21.2822 19.1602 21.1416 19.2539C21.0127 19.3477 20.8662 19.4355 20.7021 19.5176C20.5498 19.5879 20.4209 19.6699 20.3154 19.7637C19.7881 19.8809 19.3076 19.9688 18.874 20.0273C18.4521 20.0742 17.9834 20.1387 17.4678 20.2207C17.3154 20.2441 17.1689 20.2441 17.0283 20.2207C16.8994 20.1855 16.7646 20.1738 16.624 20.1855C16.542 20.1855 16.4658 20.1855 16.3955 20.1855C16.3252 20.1738 16.2549 20.1738 16.1846 20.1855C15.915 20.209 15.7393 20.3027 15.6572 20.4668C15.5752 20.6191 15.5049 20.8008 15.4463 21.0117C15.3994 21.2109 15.335 21.4043 15.2529 21.5918C15.1826 21.7676 15.0244 21.8906 14.7783 21.9609C14.7549 22.0195 14.7607 22.0723 14.7959 22.1191C14.8428 22.166 14.8779 22.207 14.9014 22.2422C14.7021 22.3008 14.5674 22.4062 14.4971 22.5586C14.4385 22.7109 14.3857 22.8633 14.3389 23.0156C14.292 23.168 14.2217 23.2969 14.1279 23.4023C14.0459 23.5078 13.8818 23.543 13.6357 23.5078C13.2725 23.8945 12.8447 24.2051 12.3525 24.4395C11.8604 24.6855 11.3506 24.8438 10.8232 24.9141C10.7295 24.8672 10.6357 24.8086 10.542 24.7383C10.46 24.668 10.3721 24.6035 10.2783 24.5449C10.1963 24.4863 10.1025 24.4395 9.99707 24.4043C9.90332 24.3809 9.79199 24.3809 9.66309 24.4043C9.65137 24.1582 9.60449 23.9297 9.52246 23.7188C9.42871 23.5078 9.31152 23.3086 9.1709 23.1211C9.14746 22.9102 9.17676 22.7168 9.25879 22.541C9.3291 22.3535 9.40527 22.1719 9.4873 21.9961C9.56934 21.8203 9.63965 21.6445 9.69824 21.4688C9.74512 21.2812 9.7334 21.0703 9.66309 20.8359C9.78027 20.7656 9.85645 20.6836 9.8916 20.5898C9.93848 20.4961 9.96777 20.4023 9.97949 20.3086C10.0029 20.2031 10.0322 20.1094 10.0674 20.0273C10.1025 19.9336 10.1846 19.8574 10.3135 19.7988C10.2197 19.5176 10.2314 19.3125 10.3486 19.1836C10.4775 19.043 10.6299 18.9199 10.8057 18.8145C10.9814 18.709 11.1455 18.5918 11.2979 18.4629C11.4502 18.334 11.5088 18.1406 11.4736 17.8828C11.5439 17.8125 11.626 17.7539 11.7197 17.707C11.8135 17.6602 11.9014 17.6191 11.9834 17.584C12.0771 17.5371 12.165 17.4902 12.2471 17.4434C12.3291 17.3965 12.4053 17.332 12.4756 17.25C12.3936 17.1914 12.3525 17.1328 12.3525 17.0742C12.3643 17.0156 12.3818 16.957 12.4053 16.8984C12.4287 16.8281 12.4521 16.7578 12.4756 16.6875C12.5107 16.6172 12.5107 16.5469 12.4756 16.4766C12.792 16.5234 13.0674 16.4824 13.3018 16.3535C13.5479 16.2129 13.7764 16.0723 13.9873 15.9316C14.21 15.791 14.4326 15.6914 14.6553 15.6328C14.8779 15.5742 15.1357 15.6445 15.4287 15.8438C15.4521 15.9258 15.4873 16.0488 15.5342 16.2129C15.5928 16.3652 15.6455 16.5234 15.6924 16.6875C15.751 16.8516 15.8037 17.0098 15.8506 17.1621C15.8975 17.3145 15.9268 17.4258 15.9385 17.4961C15.9385 17.5547 15.9385 17.6484 15.9385 17.7773C15.9385 17.9062 15.9385 18.0469 15.9385 18.1992C15.9385 18.3398 15.9385 18.4746 15.9385 18.6035C15.9385 18.7324 15.9385 18.832 15.9385 18.9023C16.2783 19.1016 16.6182 19.2246 16.958 19.2715C17.2979 19.3066 17.6377 19.2246 17.9775 19.0254C18.1064 19.1426 18.2295 19.1777 18.3467 19.1309C18.4639 19.0723 18.5752 19.0078 18.6807 18.9375C18.7979 18.8672 18.915 18.832 19.0322 18.832C19.1494 18.8203 19.2666 18.9141 19.3838 19.1133C19.5479 18.9609 19.7178 18.8672 19.8936 18.832C20.0693 18.7852 20.251 18.7617 20.4385 18.7617C20.626 18.75 20.8076 18.7324 20.9834 18.709C21.1709 18.6855 21.3525 18.6094 21.5283 18.4805ZM14.7783 18.7793C14.7783 18.6035 14.8076 18.416 14.8662 18.2168C14.9248 18.0176 14.9717 17.8242 15.0068 17.6367C15.042 17.4375 15.0361 17.25 14.9893 17.0742C14.9541 16.8984 14.8428 16.7402 14.6553 16.5996C14.5264 16.6699 14.4209 16.7695 14.3389 16.8984C14.2568 17.0156 14.1748 17.1387 14.0928 17.2676C14.0107 17.3848 13.9111 17.4844 13.7939 17.5664C13.6885 17.6484 13.5479 17.6719 13.3721 17.6367C13.3135 17.7773 13.3135 17.8945 13.3721 17.9883C13.4307 18.0703 13.501 18.1523 13.583 18.2344C13.665 18.3047 13.7412 18.3809 13.8115 18.4629C13.8936 18.5449 13.9229 18.6504 13.8994 18.7793C13.9463 18.8145 14.0107 18.8496 14.0928 18.8848C14.1748 18.9082 14.2568 18.9258 14.3389 18.9375C14.4326 18.9375 14.5205 18.9258 14.6025 18.9023C14.6846 18.8789 14.7432 18.8379 14.7783 18.7793ZM14.6553 20.1855C14.4209 20.1855 14.2158 20.1328 14.04 20.0273C13.876 19.9102 13.7061 19.7812 13.5303 19.6406C13.3662 19.5 13.1904 19.3711 13.0029 19.2539C12.8271 19.125 12.6104 19.0488 12.3525 19.0254C12.2471 19.166 12.124 19.3008 11.9834 19.4297C11.8428 19.5469 11.7197 19.6758 11.6143 19.8164C11.5088 19.957 11.4326 20.1094 11.3857 20.2734C11.3506 20.4375 11.3799 20.625 11.4736 20.8359C11.2041 20.9648 11.0225 21.1523 10.9287 21.3984C10.835 21.6328 10.7705 21.8906 10.7354 22.1719C10.7119 22.4531 10.6885 22.7344 10.665 23.0156C10.6416 23.2969 10.5654 23.5488 10.4365 23.7715L10.8232 23.5078C10.8701 23.5312 10.9053 23.5664 10.9287 23.6133C10.9639 23.6602 10.9697 23.7129 10.9463 23.7715C11.04 23.6777 11.1455 23.6074 11.2627 23.5605C11.3799 23.502 11.4971 23.4609 11.6143 23.4375C11.7432 23.4023 11.8662 23.373 11.9834 23.3496C12.1123 23.3262 12.2354 23.291 12.3525 23.2441C12.6455 23.4082 12.8564 23.4434 12.9854 23.3496C13.1143 23.2559 13.2197 23.1152 13.3018 22.9277C13.3838 22.7402 13.4717 22.5469 13.5654 22.3477C13.6592 22.1367 13.8115 22.0078 14.0225 21.9609L13.8994 21.8379C14.0986 21.5918 14.2744 21.3398 14.4268 21.082C14.5908 20.8125 14.667 20.5137 14.6553 20.1855ZM31.917 18.9727C31.7881 19.1367 31.6885 19.3184 31.6182 19.5176C31.5479 19.7168 31.46 19.9043 31.3545 20.0801C31.2607 20.2559 31.1377 20.4023 30.9854 20.5195C30.8447 20.6367 30.6455 20.6895 30.3877 20.6777C30.2002 20.748 30.0596 20.877 29.9658 21.0645C29.8838 21.2402 29.8018 21.4219 29.7197 21.6094C29.6377 21.7852 29.5322 21.9316 29.4033 22.0488C29.2744 22.1543 29.0811 22.166 28.8232 22.084C28.4951 22.2246 28.1963 22.4121 27.9268 22.6465C27.6689 22.8691 27.4229 23.1035 27.1885 23.3496C27.1064 23.4316 27.0127 23.5371 26.9072 23.666C26.8018 23.7832 26.7021 23.8711 26.6084 23.9297C26.5264 23.9766 26.4443 23.9824 26.3623 23.9473C26.2803 23.9121 26.2041 23.877 26.1338 23.8418C26.0635 23.7949 25.9932 23.7715 25.9229 23.7715C25.8643 23.7715 25.8115 23.8242 25.7646 23.9297C25.8467 24.0938 25.8643 24.2051 25.8174 24.2637C25.7705 24.334 25.6943 24.3867 25.5889 24.4219C25.4834 24.457 25.3721 24.4863 25.2549 24.5098C25.1377 24.5332 25.0439 24.5742 24.9736 24.6328C24.833 24.7617 24.7334 24.9199 24.6748 25.1074C24.6162 25.2949 24.5635 25.4824 24.5166 25.6699C24.4697 25.8574 24.3994 26.0332 24.3057 26.1973C24.2236 26.373 24.083 26.5078 23.8838 26.6016C24.001 26.6836 24.0479 26.7656 24.0244 26.8477C24.0127 26.9297 23.9834 27.0117 23.9365 27.0938C23.8896 27.1875 23.8545 27.2754 23.8311 27.3574C23.8193 27.4395 23.8662 27.5215 23.9717 27.6035C23.7959 27.8262 23.6377 28.0664 23.4971 28.3242C23.3682 28.582 23.2393 28.8398 23.1104 29.0977C22.9814 29.3672 22.8408 29.625 22.6885 29.8711C22.5479 30.1289 22.3662 30.3574 22.1436 30.5566L22.1963 30.9785C22.0205 30.9316 21.9092 30.9375 21.8623 30.9961C21.8271 31.0547 21.8096 31.1367 21.8096 31.2422C21.8096 31.3477 21.8096 31.4531 21.8096 31.5586C21.8213 31.6758 21.7861 31.7637 21.7041 31.8223C21.6689 31.8691 21.6279 31.9043 21.5811 31.9277C21.5459 31.9512 21.5107 31.9805 21.4756 32.0156C21.1006 32.2969 20.8428 32.6543 20.7021 33.0879C20.6787 33.1582 20.6611 33.2285 20.6494 33.2988C20.6377 33.3691 20.6201 33.4453 20.5967 33.5273C20.5381 33.6914 20.4443 33.8613 20.3154 34.0371C20.1865 34.2129 20.0459 34.3945 19.8936 34.582C19.7412 34.7695 19.5947 34.9629 19.4541 35.1621C19.3135 35.373 19.2021 35.584 19.1201 35.7949C18.9326 35.7715 18.7861 35.7891 18.6807 35.8477C18.5635 35.918 18.4697 36.0059 18.3994 36.1113C18.3291 36.2285 18.2705 36.3516 18.2236 36.4805C18.1768 36.6094 18.1182 36.7207 18.0479 36.8145C17.9658 36.9199 17.8662 36.9961 17.749 37.043C17.6201 37.1016 17.4561 37.1016 17.2568 37.043L16.4658 37.7637C16.3252 37.6816 16.1904 37.6641 16.0615 37.7109C15.9209 37.7578 15.7861 37.8223 15.6572 37.9043C15.5166 37.9863 15.3818 38.0508 15.2529 38.0977C15.1123 38.1445 14.9658 38.127 14.8135 38.0449C14.7314 38.1387 14.6611 38.1855 14.6025 38.1855C14.5439 38.1973 14.4736 38.1504 14.3916 38.0449L14.1279 38.3262C13.9873 38.209 13.8174 38.0977 13.6182 37.9922C13.4072 37.8984 13.2139 37.7871 13.0381 37.6582C12.8623 37.541 12.7217 37.4004 12.6162 37.2363C12.5107 37.084 12.4932 36.8848 12.5635 36.6387C12.54 36.5684 12.5049 36.4922 12.458 36.4102C12.3994 36.3281 12.3525 36.2402 12.3174 36.1465C12.2822 36.0645 12.2588 35.9766 12.2471 35.8828C12.2354 35.8008 12.2588 35.7246 12.3174 35.6543C12.2119 35.4551 12.1768 35.25 12.2119 35.0391C12.2354 34.8398 12.2764 34.6406 12.335 34.4414C12.3936 34.2422 12.4404 34.043 12.4756 33.8438C12.5107 33.6445 12.4756 33.4453 12.3701 33.2461C12.5107 33.1406 12.6162 33.0059 12.6865 32.8418C12.7451 32.6777 12.8037 32.5078 12.8623 32.332C12.9092 32.1562 12.9619 31.9863 13.0205 31.8223C13.0791 31.6582 13.1787 31.5234 13.3193 31.418L13.3018 31.1367C13.8525 30.5508 14.4385 30.0117 15.0596 29.5195C15.6689 29.0391 16.3604 28.6816 17.1338 28.4473C17.2861 28.1777 17.4854 27.9785 17.7314 27.8496C17.9775 27.7324 18.2295 27.6211 18.4873 27.5156C18.7334 27.4219 18.9619 27.2988 19.1729 27.1465C19.3838 27.0059 19.542 26.7773 19.6475 26.4609C19.7061 26.5898 19.7646 26.6426 19.8232 26.6191C19.8818 26.6074 19.9404 26.5781 19.999 26.5312C20.0693 26.4961 20.1338 26.4668 20.1924 26.4434C20.251 26.4316 20.3096 26.4844 20.3682 26.6016C20.4854 26.25 20.6729 25.9688 20.9307 25.7578C21.2002 25.5469 21.4932 25.3594 21.8096 25.1953C22.1377 25.043 22.4658 24.8906 22.7939 24.7383C23.1221 24.5977 23.4092 24.4219 23.6553 24.2109C23.9131 24 24.1064 23.7422 24.2354 23.4375C24.3643 23.1211 24.3936 22.7168 24.3232 22.2246C24.4287 22.1543 24.499 22.0664 24.5342 21.9609C24.5693 21.8438 24.5928 21.7266 24.6045 21.6094C24.6279 21.4922 24.6572 21.3867 24.6924 21.293C24.7275 21.1992 24.8037 21.1348 24.9209 21.0996C24.8389 20.9707 24.7393 20.9121 24.6221 20.9238C24.5049 20.9355 24.3818 20.9707 24.2529 21.0293C24.1357 21.0879 24.0244 21.1465 23.9189 21.2051C23.8135 21.2637 23.7256 21.2754 23.6553 21.2402C23.6201 21.4043 23.5439 21.5215 23.4268 21.5918C23.3213 21.6621 23.2041 21.7266 23.0752 21.7852C22.9463 21.832 22.8115 21.8848 22.6709 21.9434C22.5303 22.002 22.4189 22.0957 22.3369 22.2246C22.2314 22.1777 22.1318 22.2012 22.0381 22.2949C21.9561 22.377 21.8682 22.4707 21.7744 22.5762C21.6924 22.6699 21.5986 22.7402 21.4932 22.7871C21.3877 22.834 21.2646 22.7871 21.124 22.6465C21.0537 22.834 20.9365 22.957 20.7725 23.0156C20.6201 23.0742 20.4502 23.1035 20.2627 23.1035C20.0752 23.1035 19.8818 23.0918 19.6826 23.0684C19.4951 23.0449 19.3252 23.0508 19.1729 23.0859L18.874 22.7871C18.8506 22.8457 18.8154 22.8926 18.7686 22.9277C18.71 22.9629 18.6514 22.9688 18.5928 22.9453C18.499 22.7461 18.4111 22.5352 18.3291 22.3125C18.2354 22.0781 18.1768 21.8496 18.1533 21.627C18.1182 21.3926 18.1357 21.1699 18.2061 20.959C18.2764 20.7363 18.417 20.543 18.6279 20.3789C18.9561 19.7812 19.3838 19.3125 19.9111 18.9727C19.9697 19.0195 20.0342 19.0371 20.1045 19.0254C20.1748 19.002 20.2451 18.9727 20.3154 18.9375C20.3975 18.8906 20.4736 18.8438 20.5439 18.7969C20.6143 18.7383 20.6787 18.7031 20.7373 18.6914C20.7725 18.5625 20.8369 18.4395 20.9307 18.3223C21.0361 18.2051 21.1475 18.0996 21.2646 18.0059C21.3936 17.9121 21.5225 17.8301 21.6514 17.7598C21.792 17.6777 21.9209 17.6074 22.0381 17.5488C22.2607 17.4434 22.4658 17.3145 22.6533 17.1621C22.8525 16.998 23.0518 16.8457 23.251 16.7051C23.4502 16.5527 23.6553 16.4238 23.8662 16.3184C24.0771 16.2129 24.3174 16.1602 24.5869 16.1602L24.9033 16.4414C24.7041 16.5586 24.5283 16.7051 24.376 16.8809C24.2354 17.0449 24.0889 17.2148 23.9365 17.3906C23.7842 17.5547 23.6201 17.707 23.4443 17.8477C23.2686 17.9883 23.0518 18.082 22.7939 18.1289C22.583 18.5391 22.2959 18.8906 21.9326 19.1836C21.5811 19.4648 21.2178 19.7285 20.8428 19.9746C20.8428 20.1504 20.79 20.291 20.6846 20.3965C20.5791 20.502 20.4561 20.5957 20.3154 20.6777C20.1748 20.7598 20.0342 20.8359 19.8936 20.9062C19.7529 20.9648 19.6357 21.0469 19.542 21.1523C19.46 21.2461 19.4189 21.3691 19.4189 21.5215C19.4189 21.6621 19.4951 21.8496 19.6475 22.084C19.7881 22.0137 19.958 21.9668 20.1572 21.9434C20.3564 21.9199 20.5498 21.8906 20.7373 21.8555C20.9248 21.8086 21.0889 21.7441 21.2295 21.6621C21.3818 21.5684 21.4873 21.4277 21.5459 21.2402C21.71 21.0996 21.8857 21.0117 22.0732 20.9766C22.2607 20.9414 22.4541 20.9355 22.6533 20.959C23.04 20.5371 23.4268 20.1504 23.8135 19.7988C24.2119 19.4355 24.5869 19.0664 24.9385 18.6914C25.29 18.3164 25.6123 17.918 25.9053 17.4961C26.21 17.0625 26.4736 16.5645 26.6963 16.002C26.9307 15.9316 27.1416 15.9609 27.3291 16.0898C27.5166 16.2188 27.6514 16.3828 27.7334 16.582C27.71 16.7227 27.6689 16.8574 27.6104 16.9863C27.5635 17.1035 27.5166 17.2207 27.4697 17.3379C27.4346 17.4434 27.4053 17.5605 27.3818 17.6895C27.3701 17.8184 27.3936 17.9648 27.4521 18.1289C27.3584 18.1055 27.2822 18.1348 27.2236 18.2168C27.1768 18.2988 27.124 18.3691 27.0654 18.4277C27.1006 18.5801 27.0947 18.7207 27.0479 18.8496C27.001 18.9668 26.9424 19.084 26.8721 19.2012C26.8018 19.3066 26.7373 19.4238 26.6787 19.5527C26.6318 19.6816 26.6201 19.8223 26.6436 19.9746C26.4795 20.2793 26.3564 20.6016 26.2744 20.9414C26.2041 21.2695 26.1572 21.6035 26.1338 21.9434L26.4502 22.2246C26.6025 22.002 26.79 21.8438 27.0127 21.75C27.2471 21.6562 27.4814 21.5801 27.7158 21.5215C27.9502 21.4512 28.1787 21.375 28.4014 21.293C28.624 21.1992 28.8174 21.041 28.9814 20.8184C29.0518 20.4785 29.1982 20.2383 29.4209 20.0977C29.6436 19.9453 29.8779 19.8164 30.124 19.7109C30.3701 19.6055 30.6045 19.4883 30.8271 19.3594C31.0615 19.2188 31.2256 18.9961 31.3193 18.6914H31.7588C31.7354 18.75 31.7471 18.8027 31.7939 18.8496C31.8408 18.8965 31.8818 18.9375 31.917 18.9727ZM22.1963 26.7598C22.0791 26.8301 21.9502 26.8945 21.8096 26.9531C21.6689 27.0117 21.5283 27.0762 21.3877 27.1465C21.2471 27.2168 21.1182 27.2988 21.001 27.3926C20.8838 27.4863 20.7959 27.6035 20.7373 27.7441C20.6084 27.6738 20.4854 27.668 20.3682 27.7266C20.2627 27.7969 20.1572 27.873 20.0518 27.9551C19.9463 28.0488 19.835 28.125 19.7178 28.1836C19.6123 28.2422 19.4951 28.2363 19.3662 28.166C19.1436 28.3066 18.9326 28.459 18.7334 28.623C18.5225 28.7871 18.3115 28.9453 18.1006 29.0977C17.8896 29.2617 17.6729 29.4082 17.4502 29.5371C17.2158 29.6777 16.9697 29.7832 16.7119 29.8535C16.583 30.0645 16.4131 30.2285 16.2021 30.3457C15.9912 30.4746 15.7803 30.5977 15.5693 30.7148C15.3467 30.832 15.1475 30.9727 14.9717 31.1367C14.7959 31.3008 14.6846 31.5293 14.6377 31.8223C14.2744 32.0566 14.0283 32.3555 13.8994 32.7188C13.7588 33.0938 13.6826 33.4863 13.6709 33.8965C13.6592 34.3184 13.6768 34.7402 13.7236 35.1621C13.7705 35.5957 13.7939 35.9883 13.7939 36.3398C13.9463 36.5156 14.0986 36.6387 14.251 36.709C14.4033 36.7793 14.5615 36.8145 14.7256 36.8145C14.8896 36.8145 15.0596 36.791 15.2354 36.7441C15.3994 36.709 15.5811 36.6738 15.7803 36.6387C15.8271 36.4629 15.915 36.3457 16.0439 36.2871C16.1611 36.2402 16.29 36.2051 16.4307 36.1816C16.5596 36.1582 16.6826 36.123 16.7998 36.0762C16.9053 36.041 16.9639 35.9473 16.9756 35.7949L17.1338 35.9355C17.1455 35.748 17.1982 35.5898 17.292 35.4609C17.3857 35.3438 17.4971 35.2324 17.626 35.127C17.7549 35.0215 17.8955 34.9219 18.0479 34.8281C18.1885 34.7344 18.3115 34.6289 18.417 34.5117C18.3936 34.2891 18.4346 34.1016 18.54 33.9492C18.6455 33.7969 18.7627 33.6562 18.8916 33.5273C19.0205 33.3984 19.1377 33.2578 19.2432 33.1055C19.3369 32.9531 19.3721 32.7598 19.3486 32.5254C19.4658 32.4785 19.5479 32.4023 19.5947 32.2969C19.6416 32.1914 19.6885 32.0918 19.7354 31.998C19.7822 31.9043 19.8408 31.834 19.9111 31.7871C19.9932 31.7402 20.1162 31.752 20.2803 31.8223C20.1162 31.6934 20.0459 31.5938 20.0693 31.5234C20.1045 31.4531 20.1631 31.3887 20.2451 31.3301C20.3271 31.2832 20.4033 31.2246 20.4736 31.1543C20.5439 31.084 20.5439 30.9785 20.4736 30.8379C20.7549 30.7207 20.9365 30.5508 21.0186 30.3281C21.1006 30.1055 21.1592 29.8652 21.1943 29.6074C21.2412 29.3613 21.3057 29.1152 21.3877 28.8691C21.4697 28.6348 21.6514 28.4473 21.9326 28.3066C21.9092 28.0957 21.9443 27.9082 22.0381 27.7441C22.1436 27.5918 22.2432 27.4453 22.3369 27.3047C22.4424 27.1641 22.5127 27.0176 22.5479 26.8652C22.5947 26.7129 22.5537 26.5312 22.4248 26.3203L22.1963 26.7598ZM42.8506 18.4805C42.8975 18.6562 42.8799 18.8086 42.7979 18.9375C42.7158 19.0547 42.6045 19.1602 42.4639 19.2539C42.335 19.3477 42.1885 19.4355 42.0244 19.5176C41.8721 19.5879 41.7432 19.6699 41.6377 19.7637C41.1104 19.8809 40.6299 19.9688 40.1963 20.0273C39.7744 20.0742 39.3057 20.1387 38.79 20.2207C38.6377 20.2441 38.4912 20.2441 38.3506 20.2207C38.2217 20.1855 38.0869 20.1738 37.9463 20.1855C37.8643 20.1855 37.7881 20.1855 37.7178 20.1855C37.6475 20.1738 37.5771 20.1738 37.5068 20.1855C37.2373 20.209 37.0615 20.3027 36.9795 20.4668C36.8975 20.6191 36.8271 20.8008 36.7686 21.0117C36.7217 21.2109 36.6572 21.4043 36.5752 21.5918C36.5049 21.7676 36.3467 21.8906 36.1006 21.9609C36.0771 22.0195 36.083 22.0723 36.1182 22.1191C36.165 22.166 36.2002 22.207 36.2236 22.2422C36.0244 22.3008 35.8896 22.4062 35.8193 22.5586C35.7607 22.7109 35.708 22.8633 35.6611 23.0156C35.6143 23.168 35.5439 23.2969 35.4502 23.4023C35.3682 23.5078 35.2041 23.543 34.958 23.5078C34.5947 23.8945 34.167 24.2051 33.6748 24.4395C33.1826 24.6855 32.6729 24.8438 32.1455 24.9141C32.0518 24.8672 31.958 24.8086 31.8643 24.7383C31.7822 24.668 31.6943 24.6035 31.6006 24.5449C31.5186 24.4863 31.4248 24.4395 31.3193 24.4043C31.2256 24.3809 31.1143 24.3809 30.9854 24.4043C30.9736 24.1582 30.9268 23.9297 30.8447 23.7188C30.751 23.5078 30.6338 23.3086 30.4932 23.1211C30.4697 22.9102 30.499 22.7168 30.5811 22.541C30.6514 22.3535 30.7275 22.1719 30.8096 21.9961C30.8916 21.8203 30.9619 21.6445 31.0205 21.4688C31.0674 21.2812 31.0557 21.0703 30.9854 20.8359C31.1025 20.7656 31.1787 20.6836 31.2139 20.5898C31.2607 20.4961 31.29 20.4023 31.3018 20.3086C31.3252 20.2031 31.3545 20.1094 31.3896 20.0273C31.4248 19.9336 31.5068 19.8574 31.6357 19.7988C31.542 19.5176 31.5537 19.3125 31.6709 19.1836C31.7998 19.043 31.9521 18.9199 32.1279 18.8145C32.3037 18.709 32.4678 18.5918 32.6201 18.4629C32.7725 18.334 32.8311 18.1406 32.7959 17.8828C32.8662 17.8125 32.9482 17.7539 33.042 17.707C33.1357 17.6602 33.2236 17.6191 33.3057 17.584C33.3994 17.5371 33.4873 17.4902 33.5693 17.4434C33.6514 17.3965 33.7275 17.332 33.7979 17.25C33.7158 17.1914 33.6748 17.1328 33.6748 17.0742C33.6865 17.0156 33.7041 16.957 33.7275 16.8984C33.751 16.8281 33.7744 16.7578 33.7979 16.6875C33.833 16.6172 33.833 16.5469 33.7979 16.4766C34.1143 16.5234 34.3896 16.4824 34.624 16.3535C34.8701 16.2129 35.0986 16.0723 35.3096 15.9316C35.5322 15.791 35.7549 15.6914 35.9775 15.6328C36.2002 15.5742 36.458 15.6445 36.751 15.8438C36.7744 15.9258 36.8096 16.0488 36.8564 16.2129C36.915 16.3652 36.9678 16.5234 37.0146 16.6875C37.0732 16.8516 37.126 17.0098 37.1729 17.1621C37.2197 17.3145 37.249 17.4258 37.2607 17.4961C37.2607 17.5547 37.2607 17.6484 37.2607 17.7773C37.2607 17.9062 37.2607 18.0469 37.2607 18.1992C37.2607 18.3398 37.2607 18.4746 37.2607 18.6035C37.2607 18.7324 37.2607 18.832 37.2607 18.9023C37.6006 19.1016 37.9404 19.2246 38.2803 19.2715C38.6201 19.3066 38.96 19.2246 39.2998 19.0254C39.4287 19.1426 39.5518 19.1777 39.6689 19.1309C39.7861 19.0723 39.8975 19.0078 40.0029 18.9375C40.1201 18.8672 40.2373 18.832 40.3545 18.832C40.4717 18.8203 40.5889 18.9141 40.7061 19.1133C40.8701 18.9609 41.04 18.8672 41.2158 18.832C41.3916 18.7852 41.5732 18.7617 41.7607 18.7617C41.9482 18.75 42.1299 18.7324 42.3057 18.709C42.4932 18.6855 42.6748 18.6094 42.8506 18.4805ZM36.1006 18.7793C36.1006 18.6035 36.1299 18.416 36.1885 18.2168C36.2471 18.0176 36.2939 17.8242 36.3291 17.6367C36.3643 17.4375 36.3584 17.25 36.3115 17.0742C36.2764 16.8984 36.165 16.7402 35.9775 16.5996C35.8486 16.6699 35.7432 16.7695 35.6611 16.8984C35.5791 17.0156 35.4971 17.1387 35.415 17.2676C35.333 17.3848 35.2334 17.4844 35.1162 17.5664C35.0107 17.6484 34.8701 17.6719 34.6943 17.6367C34.6357 17.7773 34.6357 17.8945 34.6943 17.9883C34.7529 18.0703 34.8232 18.1523 34.9053 18.2344C34.9873 18.3047 35.0635 18.3809 35.1338 18.4629C35.2158 18.5449 35.2451 18.6504 35.2217 18.7793C35.2686 18.8145 35.333 18.8496 35.415 18.8848C35.4971 18.9082 35.5791 18.9258 35.6611 18.9375C35.7549 18.9375 35.8428 18.9258 35.9248 18.9023C36.0068 18.8789 36.0654 18.8379 36.1006 18.7793ZM35.9775 20.1855C35.7432 20.1855 35.5381 20.1328 35.3623 20.0273C35.1982 19.9102 35.0283 19.7812 34.8525 19.6406C34.6885 19.5 34.5127 19.3711 34.3252 19.2539C34.1494 19.125 33.9326 19.0488 33.6748 19.0254C33.5693 19.166 33.4463 19.3008 33.3057 19.4297C33.165 19.5469 33.042 19.6758 32.9365 19.8164C32.8311 19.957 32.7549 20.1094 32.708 20.2734C32.6729 20.4375 32.7021 20.625 32.7959 20.8359C32.5264 20.9648 32.3447 21.1523 32.251 21.3984C32.1572 21.6328 32.0928 21.8906 32.0576 22.1719C32.0342 22.4531 32.0107 22.7344 31.9873 23.0156C31.9639 23.2969 31.8877 23.5488 31.7588 23.7715L32.1455 23.5078C32.1924 23.5312 32.2275 23.5664 32.251 23.6133C32.2861 23.6602 32.292 23.7129 32.2686 23.7715C32.3623 23.6777 32.4678 23.6074 32.585 23.5605C32.7021 23.502 32.8193 23.4609 32.9365 23.4375C33.0654 23.4023 33.1885 23.373 33.3057 23.3496C33.4346 23.3262 33.5576 23.291 33.6748 23.2441C33.9678 23.4082 34.1787 23.4434 34.3076 23.3496C34.4365 23.2559 34.542 23.1152 34.624 22.9277C34.7061 22.7402 34.7939 22.5469 34.8877 22.3477C34.9814 22.1367 35.1338 22.0078 35.3447 21.9609L35.2217 21.8379C35.4209 21.5918 35.5967 21.3398 35.749 21.082C35.9131 20.8125 35.9893 20.5137 35.9775 20.1855Z" fill="#231F20"/>
</svg>
